<svg xmlns="http://www.w3.org/2000/svg" width="512" height="512" fill="none" viewBox="0 0 512 512">
    <rect width="512" height="512" fill="#36454F"/>
    <path fill="#4b9fe4" d="M396.5 232.151c18.667 10.777 18.667 37.721 0 48.498L143 427.008c-18.521 10.693-41.636-2.486-41.996-23.745l-.004-.504h14c0 10.777 11.667 17.512 21 12.124l253.5-146.359c9.333-5.388 9.333-18.859 0-24.248L136 97.9179c-9.333-5.3885-21 1.3469-21 12.1241h-14c0-21.5543 23.333-35.0261 42-24.2491zM115 402.759h-14V110.042h14z"/>
    <path fill="#4b9fe4" d="M260.891 289.578c-4.453 0-7.079-2.719-7.079-7.406v-52.875c0-4.641 2.626-7.359 7.079-7.359h22.359c12.703 0 20.672 6.515 20.672 16.874 0 7.407-5.531 13.594-12.703 14.672v.375c9.187.703 15.937 7.407 15.937 16.36 0 11.906-8.953 19.359-23.39 19.359zm7.078-39.516h10.172c7.547 0 11.859-3.328 11.859-9.046 0-5.438-3.797-8.532-10.406-8.532h-11.625zm0 28.969h12.187c8.156 0 12.563-3.469 12.563-9.937 0-6.328-4.547-9.703-12.891-9.703h-11.859zM192.031 290.469c-4.406 0-7.172-2.578-7.172-6.657 0-1.171.329-2.765.938-4.5l18.469-50.296c1.968-5.485 5.296-8.016 10.64-8.016 5.532 0 8.813 2.438 10.828 7.969l18.563 50.343c.656 1.829.891 3.094.891 4.5 0 3.891-2.954 6.657-7.079 6.657-3.984 0-6.093-1.828-7.359-6.235l-3.562-10.687h-24.422l-3.563 10.547c-1.312 4.5-3.422 6.375-7.172 6.375m13.828-27.891h18.047l-8.953-27.703h-.328zM168.547 290.141c-4.219 0-7.547-3.375-7.547-7.547 0-4.219 3.328-7.547 7.547-7.547 4.172 0 7.547 3.328 7.547 7.547 0 4.172-3.375 7.547-7.547 7.547"/>
</svg>